<svg id="visual" viewBox="0 0 900 600" width="900" height="600" xmlns="http://www.w3.org/2000/svg" xmlns:xlink="http://www.w3.org/1999/xlink" version="1.1"><rect x="0" y="0" width="900" height="600" fill="#1c002f"></rect><path d="M0 73L39 73L39 175L78 175L78 181L117 181L117 77L157 77L157 140L196 140L196 72L235 72L235 61L274 61L274 90L313 90L313 137L352 137L352 99L391 99L391 74L430 74L430 110L470 110L470 158L509 158L509 176L548 176L548 60L587 60L587 99L626 99L626 151L665 151L665 85L704 85L704 168L743 168L743 144L783 144L783 98L822 98L822 109L861 109L861 151L900 151L900 96L900 601L900 601L861 601L861 601L822 601L822 601L783 601L783 601L743 601L743 601L704 601L704 601L665 601L665 601L626 601L626 601L587 601L587 601L548 601L548 601L509 601L509 601L470 601L470 601L430 601L430 601L391 601L391 601L352 601L352 601L313 601L313 601L274 601L274 601L235 601L235 601L196 601L196 601L157 601L157 601L117 601L117 601L78 601L78 601L39 601L39 601L0 601Z" fill="#1a002c"></path><path d="M0 107L39 107L39 176L78 176L78 168L117 168L117 117L157 117L157 163L196 163L196 119L235 119L235 139L274 139L274 123L313 123L313 144L352 144L352 199L391 199L391 123L430 123L430 130L470 130L470 192L509 192L509 182L548 182L548 146L587 146L587 138L626 138L626 180L665 180L665 157L704 157L704 209L743 209L743 185L783 185L783 121L822 121L822 163L861 163L861 149L900 149L900 210L900 601L900 601L861 601L861 601L822 601L822 601L783 601L783 601L743 601L743 601L704 601L704 601L665 601L665 601L626 601L626 601L587 601L587 601L548 601L548 601L509 601L509 601L470 601L470 601L430 601L430 601L391 601L391 601L352 601L352 601L313 601L313 601L274 601L274 601L235 601L235 601L196 601L196 601L157 601L157 601L117 601L117 601L78 601L78 601L39 601L39 601L0 601Z" fill="#1d0434"></path><path d="M0 167L39 167L39 214L78 214L78 168L117 168L117 228L157 228L157 192L196 192L196 249L235 249L235 182L274 182L274 250L313 250L313 235L352 235L352 236L391 236L391 218L430 218L430 172L470 172L470 171L509 171L509 215L548 215L548 245L587 245L587 201L626 201L626 176L665 176L665 218L704 218L704 204L743 204L743 253L783 253L783 164L822 164L822 150L861 150L861 185L900 185L900 156L900 601L900 601L861 601L861 601L822 601L822 601L783 601L783 601L743 601L743 601L704 601L704 601L665 601L665 601L626 601L626 601L587 601L587 601L548 601L548 601L509 601L509 601L470 601L470 601L430 601L430 601L391 601L391 601L352 601L352 601L313 601L313 601L274 601L274 601L235 601L235 601L196 601L196 601L157 601L157 601L117 601L117 601L78 601L78 601L39 601L39 601L0 601Z" fill="#21063c"></path><path d="M0 288L39 288L39 215L78 215L78 223L117 223L117 280L157 280L157 244L196 244L196 262L235 262L235 252L274 252L274 264L313 264L313 232L352 232L352 189L391 189L391 228L430 228L430 273L470 273L470 224L509 224L509 267L548 267L548 264L587 264L587 273L626 273L626 216L665 216L665 255L704 255L704 206L743 206L743 252L783 252L783 210L822 210L822 273L861 273L861 267L900 267L900 197L900 601L900 601L861 601L861 601L822 601L822 601L783 601L783 601L743 601L743 601L704 601L704 601L665 601L665 601L626 601L626 601L587 601L587 601L548 601L548 601L509 601L509 601L470 601L470 601L430 601L430 601L391 601L391 601L352 601L352 601L313 601L313 601L274 601L274 601L235 601L235 601L196 601L196 601L157 601L157 601L117 601L117 601L78 601L78 601L39 601L39 601L0 601Z" fill="#260744"></path><path d="M0 304L39 304L39 259L78 259L78 277L117 277L117 291L157 291L157 265L196 265L196 274L235 274L235 275L274 275L274 291L313 291L313 252L352 252L352 247L391 247L391 236L430 236L430 275L470 275L470 239L509 239L509 268L548 268L548 287L587 287L587 323L626 323L626 262L665 262L665 246L704 246L704 283L743 283L743 247L783 247L783 325L822 325L822 305L861 305L861 244L900 244L900 265L900 601L900 601L861 601L861 601L822 601L822 601L783 601L783 601L743 601L743 601L704 601L704 601L665 601L665 601L626 601L626 601L587 601L587 601L548 601L548 601L509 601L509 601L470 601L470 601L430 601L430 601L391 601L391 601L352 601L352 601L313 601L313 601L274 601L274 601L235 601L235 601L196 601L196 601L157 601L157 601L117 601L117 601L78 601L78 601L39 601L39 601L0 601Z" fill="#2b074c"></path><path d="M0 289L39 289L39 335L78 335L78 352L117 352L117 330L157 330L157 352L196 352L196 346L235 346L235 281L274 281L274 276L313 276L313 354L352 354L352 354L391 354L391 299L430 299L430 325L470 325L470 350L509 350L509 313L548 313L548 318L587 318L587 308L626 308L626 332L665 332L665 274L704 274L704 283L743 283L743 339L783 339L783 322L822 322L822 351L861 351L861 284L900 284L900 348L900 601L900 601L861 601L861 601L822 601L822 601L783 601L783 601L743 601L743 601L704 601L704 601L665 601L665 601L626 601L626 601L587 601L587 601L548 601L548 601L509 601L509 601L470 601L470 601L430 601L430 601L391 601L391 601L352 601L352 601L313 601L313 601L274 601L274 601L235 601L235 601L196 601L196 601L157 601L157 601L117 601L117 601L78 601L78 601L39 601L39 601L0 601Z" fill="#300755"></path><path d="M0 367L39 367L39 376L78 376L78 386L117 386L117 320L157 320L157 350L196 350L196 363L235 363L235 363L274 363L274 356L313 356L313 341L352 341L352 383L391 383L391 354L430 354L430 386L470 386L470 319L509 319L509 358L548 358L548 327L587 327L587 376L626 376L626 356L665 356L665 387L704 387L704 332L743 332L743 345L783 345L783 337L822 337L822 326L861 326L861 329L900 329L900 322L900 601L900 601L861 601L861 601L822 601L822 601L783 601L783 601L743 601L743 601L704 601L704 601L665 601L665 601L626 601L626 601L587 601L587 601L548 601L548 601L509 601L509 601L470 601L470 601L430 601L430 601L391 601L391 601L352 601L352 601L313 601L313 601L274 601L274 601L235 601L235 601L196 601L196 601L157 601L157 601L117 601L117 601L78 601L78 601L39 601L39 601L0 601Z" fill="#36075d"></path><path d="M0 376L39 376L39 366L78 366L78 388L117 388L117 375L157 375L157 399L196 399L196 392L235 392L235 363L274 363L274 409L313 409L313 371L352 371L352 396L391 396L391 403L430 403L430 400L470 400L470 376L509 376L509 361L548 361L548 403L587 403L587 359L626 359L626 399L665 399L665 384L704 384L704 405L743 405L743 404L783 404L783 361L822 361L822 365L861 365L861 429L900 429L900 379L900 601L900 601L861 601L861 601L822 601L822 601L783 601L783 601L743 601L743 601L704 601L704 601L665 601L665 601L626 601L626 601L587 601L587 601L548 601L548 601L509 601L509 601L470 601L470 601L430 601L430 601L391 601L391 601L352 601L352 601L313 601L313 601L274 601L274 601L235 601L235 601L196 601L196 601L157 601L157 601L117 601L117 601L78 601L78 601L39 601L39 601L0 601Z" fill="#3b0666"></path><path d="M0 445L39 445L39 425L78 425L78 445L117 445L117 445L157 445L157 464L196 464L196 458L235 458L235 429L274 429L274 447L313 447L313 456L352 456L352 441L391 441L391 431L430 431L430 455L470 455L470 465L509 465L509 442L548 442L548 421L587 421L587 430L626 430L626 447L665 447L665 421L704 421L704 428L743 428L743 431L783 431L783 425L822 425L822 453L861 453L861 464L900 464L900 409L900 601L900 601L861 601L861 601L822 601L822 601L783 601L783 601L743 601L743 601L704 601L704 601L665 601L665 601L626 601L626 601L587 601L587 601L548 601L548 601L509 601L509 601L470 601L470 601L430 601L430 601L391 601L391 601L352 601L352 601L313 601L313 601L274 601L274 601L235 601L235 601L196 601L196 601L157 601L157 601L117 601L117 601L78 601L78 601L39 601L39 601L0 601Z" fill="#41056e"></path><path d="M0 478L39 478L39 467L78 467L78 461L117 461L117 446L157 446L157 446L196 446L196 466L235 466L235 501L274 501L274 500L313 500L313 481L352 481L352 452L391 452L391 476L430 476L430 456L470 456L470 486L509 486L509 454L548 454L548 497L587 497L587 445L626 445L626 482L665 482L665 466L704 466L704 462L743 462L743 475L783 475L783 445L822 445L822 488L861 488L861 474L900 474L900 452L900 601L900 601L861 601L861 601L822 601L822 601L783 601L783 601L743 601L743 601L704 601L704 601L665 601L665 601L626 601L626 601L587 601L587 601L548 601L548 601L509 601L509 601L470 601L470 601L430 601L430 601L391 601L391 601L352 601L352 601L313 601L313 601L274 601L274 601L235 601L235 601L196 601L196 601L157 601L157 601L117 601L117 601L78 601L78 601L39 601L39 601L0 601Z" fill="#460477"></path><path d="M0 527L39 527L39 515L78 515L78 505L117 505L117 536L157 536L157 529L196 529L196 508L235 508L235 525L274 525L274 500L313 500L313 537L352 537L352 496L391 496L391 519L430 519L430 509L470 509L470 498L509 498L509 517L548 517L548 531L587 531L587 516L626 516L626 490L665 490L665 534L704 534L704 503L743 503L743 523L783 523L783 498L822 498L822 503L861 503L861 538L900 538L900 493L900 601L900 601L861 601L861 601L822 601L822 601L783 601L783 601L743 601L743 601L704 601L704 601L665 601L665 601L626 601L626 601L587 601L587 601L548 601L548 601L509 601L509 601L470 601L470 601L430 601L430 601L391 601L391 601L352 601L352 601L313 601L313 601L274 601L274 601L235 601L235 601L196 601L196 601L157 601L157 601L117 601L117 601L78 601L78 601L39 601L39 601L0 601Z" fill="#4c0280"></path><path d="M0 573L39 573L39 537L78 537L78 540L117 540L117 548L157 548L157 543L196 543L196 554L235 554L235 569L274 569L274 572L313 572L313 547L352 547L352 533L391 533L391 545L430 545L430 571L470 571L470 561L509 561L509 559L548 559L548 571L587 571L587 563L626 563L626 564L665 564L665 548L704 548L704 550L743 550L743 538L783 538L783 551L822 551L822 536L861 536L861 544L900 544L900 539L900 601L900 601L861 601L861 601L822 601L822 601L783 601L783 601L743 601L743 601L704 601L704 601L665 601L665 601L626 601L626 601L587 601L587 601L548 601L548 601L509 601L509 601L470 601L470 601L430 601L430 601L391 601L391 601L352 601L352 601L313 601L313 601L274 601L274 601L235 601L235 601L196 601L196 601L157 601L157 601L117 601L117 601L78 601L78 601L39 601L39 601L0 601Z" fill="#520089"></path></svg>